# xmcd
#
# Track frame offsets:
#	150
#	13812
#	28297
#	41209
#	49834
#	65218
#	74077
#	79980
#	88466
#	100860
#	110022
#	119615
#	126505
#
# Disc length: 1812 seconds
#
# Revision: 2
# Processed by: cddbd v1.5.2PL0 Copyright (c) Steve Scherf et al.
# Submitted via: audiograbber 1.83.01
#
DISCID=d507120d
DTITLE=Various Artist - Bluegrass At Newport 1959, 1960, 1963 (Disk 2 Of 2)
DYEAR=1963
DGENRE=Bluegrass
TTITLE0=Clarence (Tom) Ashley, Doc Watson, Clint Howard and Fred Price - Way Down
TTITLE0=town
TTITLE1=Clarence (Tom) Ashley, Doc Watson, Clint Howard and Fred Price - Maggie W
TTITLE1=alker Blues
TTITLE2=Clarence (Tom) Ashley, Doc Watson, Clint Howard and Fred Price - The Girl
TTITLE2=, I Loved In Sunny Tennessee
TTITLE3=Clarence (Tom) Ashley, Doc Watson, Clint Howard and Fred Price - Lee High
TTITLE3=way Blues
TTITLE4=Earl Scruggw, with "Hylo" Brown and The Timberliners - Flinthill Secial
TTITLE5=Earl Scruggw, with "Hylo" Brown and The Timberliners - Earl's Breakdown
TTITLE6=Earl Scruggw, with "Hylo" Brown and The Timberliners - Cumberland Gap
TTITLE7=The Morris Brothers - Salty Dog Blues
TTITLE8=The Morris Brothers - You Give Me Your Love And I'll Give You Mine
TTITLE9=Jim and Jesse and The Virginia Boys - Border Ride
TTITLE10=Jim and Jesse and The Virginia Boys - Gosh, I Miss You All The Time
TTITLE11=Jim and Jesse and The Virginia Boys - Dill Pickle Rag
TTITLE12=Jim and Jesse and The Virginia Boys - She Left Me Standing On The Mountain
EXTD=
EXTT0=
EXTT1=
EXTT2=
EXTT3=
EXTT4=
EXTT5=
EXTT6=
EXTT7=
EXTT8=
EXTT9=
EXTT10=
EXTT11=
EXTT12=
PLAYORDER=
